<svg xmlns="http://www.w3.org/2000/svg" aria-hidden="true"
    style="position:absolute;width:0;height:0;overflow:hidden">
    <defs>
        <symbol id="icon-strategy" viewBox="0 0 30 32">
            <path fill="#2e2f42"
                d="m29.77 22.1-8.44-8.5.94-4.62c.24.1.5.14.75.14h.01a2.16 2.16 0 1 0-2-1.43l-4.97.6L7.97.16A.53.53 0 0 0 7.6 0a.53.53 0 0 0-.37.16l-1.51 1.5c-.2.2-.2.55 0 .75l.81.83A14.94 14.94 0 0 0 9.04 20.9c.05.04.1.08.15.1-.04.18-.05.36-.05.55v6.18h-6.4A2.67 2.67 0 0 0 .07 30.4v1.07c0 .3.24.53.53.53h24.54c.29 0 .53-.24.53-.53V30.4c0-1.47-1.2-2.66-2.67-2.66h-6.4v-2.75a14.85 14.85 0 0 0 10.09-1.46l.82.82a.53.53 0 0 0 .75 0l1.51-1.5c.2-.2.2-.54 0-.75zM22.28 6.23a1.07 1.07 0 1 1 .75 1.82 1.07 1.07 0 0 1-.75-1.82zm-1.26 3.5-.6 2.95-1.17-1.18 1.78-1.76zm-.6-.9-1.92 1.92L17 9.25l3.4-.41zM23 28.8c.89 0 1.6.72 1.6 1.6v.53H1.14v-.53c0-.88.71-1.6 1.6-1.6H23zm-7.46-2.13v1.06H10.2v-1.06h5.34zM10.2 25.6v-4.05c0-1.3 1.2-2.35 2.67-2.35s2.67 1.05 2.67 2.35v4.05H10.2zm6.4-1.7v-2.35c0-1.89-1.67-3.42-3.73-3.42a3.8 3.8 0 0 0-3.28 1.79A13.87 13.87 0 0 1 7.31 4.03l18.6 18.71a13.82 13.82 0 0 1-9.3 1.16zm11.3-.68L6.83 2.04l.75-.75 7.94 7.98 13.12 13.2-.76.75z"
                style="fill:var(--color1, #2e2f42)" />
            <path fill="#4d5ae5"
                d="M12.88 20.27a1.6 1.6 0 1 0-.01 3.2 1.6 1.6 0 1 0 0-3.2zm.37 1.98c-.1.1-.24.15-.38.15a.53.53 0 0 1 0-1.07.53.53 0 0 1 .37.92z"
                style="fill:var(--color2, #4d5ae5)" />
        </symbol>
        <symbol id="icon-punctuality" viewBox="0 0 32 32">
            <path fill="#2e2f42"
                d="M31.3 15.3a15.3 15.3 0 1 0-19.96 14.58l.18.03c.12 0 .24-.03.35-.1.13-.07.23-.2.28-.35L16 17.21a1.91 1.91 0 1 0-.84-3.63l-5.1-5.1a.64.64 0 0 0-.9.9l5.1 5.1c-.4.8-.17 1.77.53 2.31l-3.68 11.67a14.04 14.04 0 1 1 10.57-.35l-.4-1.87a.64.64 0 0 0-1.05-.34l-3.83 3.42a.64.64 0 0 0 .23 1.09l4.9 1.56a.64.64 0 0 0 .82-.74l-.4-1.84A15.26 15.26 0 0 0 31.3 15.3zM16 14.66a.64.64 0 1 1 0 1.28.64.64 0 0 1 0-1.28zm2.1 14.87 2.18-1.95.6 2.84-2.79-.9z"
                style="fill:var(--color1, #2e2f42)" />
            <path fill="#4d5ae5"
                d="M15.35 3.19v1.27a.64.64 0 1 0 1.28 0V3.19a.64.64 0 0 0-1.28 0zM3.88 14.66a.64.64 0 0 0 0 1.28h1.27a.64.64 0 1 0 0-1.28H3.88zM28.1 15.94a.64.64 0 1 0 0-1.28h-1.27a.64.64 0 0 0 0 1.28h1.28z"
                style="fill:var(--color2, #4d5ae5)" />
        </symbol>
        <symbol id="icon-diligence" viewBox="0 0 32 32">
            <path fill="#4d5ae5"
                d="M14.93 14.96h1.06v4.8h-1.06v-4.8zM19.19 17.1h1.07v2.66h-1.07V17.1zM10.66 18.7h1.07v1.06h-1.07V18.7zM7.46 18.16h1.07v1.6H7.46v-1.6z"
                style="fill:var(--color2, #4d5ae5)" />
            <path fill="#2e2f42"
                d="M1.6 28.3h25.59c.88 0 1.6-.73 1.6-1.6v-2.14c0-.88-.72-1.6-1.6-1.6h-.54V9.66l3.03-2.86a1.6 1.6 0 1 0-.75-.76L26.65 8.2V6.97c0-.88-.71-1.6-1.6-1.6H3.73c-.88 0-1.6.72-1.6 1.6v16H1.6c-.88 0-1.6.7-1.6 1.6v2.12c0 .89.72 1.6 1.6 1.6zM30.38 4.83a.53.53 0 1 1 0 1.06.53.53 0 0 1 0-1.06zM3.2 6.97c0-.3.24-.53.53-.53h21.32c.3 0 .54.23.54.53V9.2l-1.07 1.01V8.03c0-.29-.24-.53-.53-.53H4.79c-.29 0-.53.24-.53.53v13.33c0 .3.24.53.54.53h19.19c.3 0 .53-.23.53-.53V11.7l1.07-1.01v12.28H3.19v-16zM8 13.9a1.6 1.6 0 1 0 1.1 2.75l1.86.93c.21.1.47.06.63-.12l3.94-4.44 3.87 2.9c.21.16.5.14.69-.03l3.36-3.2v8.14H5.33V8.57h18.12v2.66l-3.77 3.57-3.9-2.93a.53.53 0 0 0-.72.08l-4 4.49-1.49-.75c.02-.06.02-.13.02-.19 0-.88-.71-1.6-1.6-1.6zm.53 1.6a.53.53 0 1 1-1.07 0 .53.53 0 0 1 1.07 0zm3.2 8.53h5.33v.53c0 .3-.24.53-.53.53h-4.27a.53.53 0 0 1-.53-.53v-.53zm-10.66.53c0-.3.24-.53.53-.53h9.06v.53c0 .88.72 1.6 1.6 1.6h4.26c.89 0 1.6-.72 1.6-1.6v-.53h9.06c.3 0 .54.24.54.53v2.13c0 .3-.24.53-.53.53H1.59a.53.53 0 0 1-.52-.53v-2.13z"
                style="fill:var(--color1, #2e2f42)" />
        </symbol>
        <symbol id="icon-technologies" viewBox="0 0 32 32">
        <path fill="#4d5ae5" style="fill: var(--color1, #4d5ae5)" d="M31.975 4.525c-0.063-0.192-0.227-0.334-0.427-0.365l-0.003-0-1.91-0.275-0.855-1.735c-0.18-0.365-0.78-0.365-0.96 0l-0.85 1.735-1.915 0.275c-0.259 0.040-0.454 0.262-0.454 0.529 0 0.149 0.061 0.284 0.159 0.381l0 0 1.385 1.35-0.33 1.9c-0.005 0.027-0.008 0.059-0.008 0.091 0 0.295 0.24 0.535 0.535 0.535 0.091 0 0.176-0.023 0.251-0.062l-0.003 0.001 1.71-0.9 1.71 0.9c0.072 0.038 0.157 0.061 0.248 0.061 0.295 0 0.535-0.24 0.535-0.535 0-0.032-0.003-0.064-0.008-0.094l0 0.003-0.33-1.9 1.385-1.35c0.145-0.14 0.2-0.35 0.135-0.55zM29.51 5.85c-0.125 0.125-0.18 0.3-0.15 0.475l0.19 1.11-1-0.525c-0.072-0.039-0.158-0.063-0.25-0.063s-0.178 0.023-0.253 0.064l0.003-0.001-1 0.525 0.19-1.11c0.030-0.175-0.025-0.35-0.15-0.475l-0.81-0.79 1.115-0.16c0.175-0.025 0.325-0.135 0.4-0.295l0.5-1.010 0.5 1.010c0.080 0.16 0.23 0.27 0.405 0.295l1.12 0.16-0.81 0.79zM26.135 20.52h-1.070v1.070h1.070v-1.070zM26.135 22.655h-1.070v1.065h1.070v-1.065zM27.2 21.59h-1.065v1.065h1.065v-1.065zM25.065 21.59h-1.065v1.065h1.065v-1.065zM22.4 26.39h-1.065v1.065h1.065v-1.065zM22.4 28.52h-1.065v1.070h1.065v-1.070zM23.465 27.455h-1.065v1.065h1.065v-1.065z"></path>
        <path fill="#4d5ae5" style="fill: var(--color1, #4d5ae5)" d="M21.335 27.455h-1.070v1.065h1.070v-1.065zM16 24.255h-1.065v1.065h1.065v-1.065zM16 26.39h-1.065v1.065h1.065v-1.065zM17.065 25.32h-1.065v1.070h1.065v-1.070zM14.935 25.32h-1.070v1.070h1.070v-1.070zM5.865 6.12h-1.065v1.070h1.065v-1.070zM5.865 8.255h-1.065v1.065h1.065v-1.065zM6.935 7.19h-1.070v1.065h1.070v-1.065zM4.8 7.19h-1.065v1.065h1.065v-1.065z"></path>
        <path fill="#2e2f42" style="fill: var(--color2, #2e2f42)" d="M24.715 14.16c-0.28-0.377-0.7-0.637-1.181-0.704l-0.009-0.001c-0.077-0.012-0.166-0.019-0.257-0.019-0.41 0-0.787 0.139-1.087 0.372l0.004-0.003-1.25 0.96-1.9 1.42-1.355-0.54c2.44-1.106 4.108-3.517 4.115-6.319v-0.001c0-3.825-3.125-6.935-6.965-6.935-0.002 0-0.003 0-0.005 0-3.834 0-6.944 3.102-6.955 6.934v0.001c0 1.385 0.415 2.67 1.12 3.755l-2.765-0.025-0.025 0.005c-0.050 0-0.105 0.015-0.155 0.035l-0.040 0.010c-0.005 0-0.015 0-0.020 0.010l-3.235 1.595-1.89 0.91c-0.538 0.313-0.894 0.888-0.894 1.545 0 0.984 0.798 1.782 1.782 1.782 0.327 0 0.633-0.088 0.896-0.241l-0.008 0.005 1.385-0.735 2.265-1.17 1.355-0.010-6.785 6.755c-0.307 0.3-0.497 0.718-0.497 1.18s0.19 0.88 0.496 1.18l0 0c0.301 0.301 0.718 0.488 1.177 0.488s0.876-0.186 1.177-0.488v0l1.315-1.31 1.74-1.3 0.9 0.9-3.1 3.085c-0.305 0.3-0.494 0.716-0.494 1.177s0.189 0.878 0.494 1.177l0 0c0.302 0.302 0.719 0.488 1.18 0.488s0.878-0.187 1.18-0.488l-0 0 1.34-1.33 2.145-2.135 1.010-1-0.005-0.005 0.020-0.015 5.17-5.66 3.47 0.495c0.020 0.003 0.042 0.004 0.065 0.004 0.070 0 0.137-0.014 0.198-0.040l-0.003 0.001 0.050-0.020 0.060-0.030 3.21-2.135c0.015-0.005 0.020-0.020 0.030-0.025 0.015-0.010 0.030-0.015 0.040-0.030l1.275-1.19c0.346-0.326 0.562-0.786 0.562-1.298 0-0.4-0.132-0.77-0.355-1.067l0.003 0.005zM2.13 17.77c-0.175 0.095-0.37 0.11-0.56 0.050-0.294-0.093-0.503-0.364-0.503-0.683 0-0.236 0.115-0.446 0.291-0.576l0.002-0.001 1.315-0.63 0.315 0.925 0.13 0.39-0.99 0.525zM5.63 15.94l-1.55 0.8-0.255-0.74-0.185-0.535 2.025-1-0.035 1.48zM20.73 9.32c0 0.92-0.22 1.785-0.6 2.56l-4.185-1.9c-0.043-0.574-0.341-1.070-0.779-1.381l-0.006-0.004 1.46-4.86c2.393 0.775 4.096 2.98 4.105 5.584v0.001zM8.94 9.32c0.015-3.241 2.646-5.863 5.89-5.863 0.264 0 0.525 0.017 0.78 0.051l-0.030-0.003-1.435 4.755h-0.055c-0.002 0-0.003 0-0.005 0-1.029 0-1.864 0.832-1.87 1.859v0.001c0.005 1.029 0.84 1.861 1.87 1.861 0.689 0 1.291-0.373 1.615-0.927l0.005-0.009 3.865 1.75c-1.085 1.459-2.803 2.394-4.74 2.394-3.245 0-5.878-2.625-5.89-5.868v-0.001zM14.89 10.12c0 0.445-0.36 0.805-0.805 0.805s-0.805-0.36-0.805-0.805v0c0-0.44 0.365-0.8 0.81-0.8s0.8 0.36 0.8 0.8zM2.47 25.15c-0.235 0.235-0.62 0.235-0.85 0-0.107-0.108-0.174-0.256-0.174-0.42s0.066-0.312 0.174-0.42l0.96-0.96 0.85 0.85-0.96 0.95zM5.685 28.885c-0.24 0.235-0.62 0.235-0.855 0-0.109-0.108-0.176-0.257-0.176-0.422s0.067-0.315 0.176-0.422l0.96-0.96 0.85 0.85-0.955 0.95zM9.165 25.415l-1.765 1.76-0.85-0.85 1.76-1.75c0.040-0.040 0.065-0.090 0.090-0.14l0.030-0.040c0.015-0.040 0.015-0.085 0.025-0.125l0.010-0.075c0-0.035-0.010-0.070-0.020-0.1 0-0.035 0-0.070-0.015-0.1-0.020-0.050-0.055-0.095-0.095-0.14-0.010-0.010-0.010-0.025-0.025-0.035l-1.605-1.6c-0.020-0.020-0.040-0.025-0.060-0.040-0.025-0.022-0.053-0.042-0.082-0.059l-0.003-0.001c-0.027-0.012-0.059-0.022-0.092-0.029l-0.003-0.001c-0.029-0.009-0.063-0.016-0.098-0.020l-0.002-0h-0.1l-0.1 0.025c-0.038 0.012-0.071 0.028-0.102 0.046l0.002-0.001c-0.015 0.010-0.040 0.015-0.055 0.030l-1.775 1.32-0.9-0.9 2.4-2.38 4.36 4.285-0.93 0.92zM15.98 18.4h-0.050c-0.009-0.001-0.019-0.001-0.030-0.001-0.1 0-0.193 0.028-0.273 0.077l0.002-0.001-0.080 0.065-0.040 0.030-4.7 5.145-4.325-4.26 2.835-2.815c0.095-0.096 0.153-0.229 0.153-0.375 0-0.295-0.239-0.534-0.533-0.535h-0l-2.22 0.010 0.025-1.605 3.105 0.025c1.264 1.296 3.027 2.099 4.977 2.099 0.454 0 0.897-0.043 1.326-0.126l-0.044 0.007c0.040 0.030 0.080 0.060 0.13 0.085l2.41 0.96 0.15 0.755 0.18 0.885-3-0.425zM20.020 18.575l-0.315-1.555 1.45-1.080 0.375 0.5 0.57 0.755-2.080 1.38zM23.77 15.745l-0.835 0.785-0.93-1.235 0.83-0.635c0.123-0.1 0.281-0.161 0.454-0.161 0.398 0 0.72 0.322 0.72 0.72 0 0.21-0.090 0.399-0.233 0.53l-0.001 0z"></path>
        <path fill="#2e2f42" style="fill: var(--color2, #2e2f42)" d="M13.6 18.545l-2.14-2.135c-0.096-0.095-0.229-0.153-0.375-0.153s-0.279 0.059-0.375 0.154l0-0-2.15 2.135c-0.096 0.097-0.156 0.23-0.156 0.378s0.060 0.281 0.156 0.378l-0-0 2.15 2.135c0.096 0.095 0.229 0.153 0.375 0.153s0.279-0.059 0.375-0.154l-0 0 2.14-2.135c0.096-0.097 0.156-0.23 0.156-0.378s-0.060-0.281-0.156-0.378l0 0zM11.085 20.305l-1.39-1.385 1.39-1.38 1.385 1.38-1.385 1.385zM17.165 5.070l-0.26 1.035c0.075 0.020 1.74 0.45 1.74 2.15h1.065c0-2.015-1.665-2.965-2.55-3.185zM19.71 9.32h-1.060v1.070h1.065v-1.070z"></path>
</symbol>
        <symbol id="icon-instagram" viewBox="0 0 32 32">
            <path
                d="M31.97 9.4a11.7 11.7 0 0 0-.74-3.87 7.8 7.8 0 0 0-1.85-2.84A7.87 7.87 0 0 0 26.54.84C25.52.45 24.36.17 22.66.1 20.95.02 20.4 0 16.06 0s-4.89.02-6.6.1C7.76.16 6.6.43 5.58.83a7.8 7.8 0 0 0-2.83 1.85A7.87 7.87 0 0 0 .9 5.52C.5 6.54.23 7.7.16 9.4c-.08 1.71-.1 2.26-.1 6.6s.02 4.9.1 6.6c.07 1.7.34 2.87.73 3.88a7.9 7.9 0 0 0 1.85 2.84c.8.81 1.77 1.44 2.84 1.84 1.02.4 2.18.67 3.88.75 1.7.07 2.25.09 6.6.09s4.88-.02 6.59-.1a11.7 11.7 0 0 0 3.88-.74 8.18 8.18 0 0 0 4.68-4.68c.4-1.02.67-2.18.75-3.88.07-1.7.1-2.25.1-6.6s-.02-4.89-.09-6.6zm-2.88 13.07a8.76 8.76 0 0 1-.55 2.97 5.3 5.3 0 0 1-3.04 3.04c-.56.22-1.41.48-2.97.55-1.69.07-2.2.1-6.46.1s-4.79-.02-6.47-.1a8.76 8.76 0 0 1-2.97-.55 4.93 4.93 0 0 1-1.84-1.2 4.97 4.97 0 0 1-1.19-1.83 8.81 8.81 0 0 1-.55-2.97c-.07-1.69-.1-2.2-.1-6.47s.03-4.78.1-6.46c.07-1.56.33-2.4.55-2.97.26-.7.66-1.32 1.2-1.84a4.97 4.97 0 0 1 1.84-1.19A8.81 8.81 0 0 1 9.6 3c1.69-.07 2.2-.1 6.46-.1 4.28 0 4.78.03 6.47.1 1.56.07 2.4.33 2.96.55.7.26 1.33.66 1.84 1.2.53.51.94 1.14 1.2 1.83.22.57.48 1.42.55 2.97.07 1.69.1 2.2.1 6.46s-.03 4.77-.1 6.46z"
                 />
            <path
                d="M16.06 7.78a8.22 8.22 0 1 0 0 16.45 8.22 8.22 0 0 0 0-16.45zm0 13.55a5.33 5.33 0 1 1 0-10.66 5.33 5.33 0 0 1 0 10.67zM26.52 7.46a1.92 1.92 0 1 1-3.83 0 1.92 1.92 0 0 1 3.83 0z"
                />
        </symbol>
        <symbol id="icon-twitter" viewBox="0 0 32 32">
            <path fill="#f4f4fd"
                d="M32 6.08c-1.19.52-2.46.87-3.78 1.03a6.52 6.52 0 0 0 2.89-3.62 13.11 13.11 0 0 1-4.16 1.59 6.57 6.57 0 0 0-11.2 5.98A18.57 18.57 0 0 1 2.23 4.2a6.57 6.57 0 0 0 2.02 8.77 6.48 6.48 0 0 1-2.97-.81v.07a6.59 6.59 0 0 0 5.26 6.44 6.55 6.55 0 0 1-2.97.1 6.62 6.62 0 0 0 6.13 4.58 13.18 13.18 0 0 1-9.7 2.7A18.47 18.47 0 0 0 10.06 29c12.08 0 18.68-10 18.68-18.67 0-.29-.01-.57-.03-.85 1.3-.92 2.4-2.07 3.29-3.4z"
                style="fill:var(--color3, #f4f4fd)" />
        </symbol>
        <symbol id="icon-facebook" viewBox="0 0 32 32">
            <path fill="#f4f4fd"
                d="M21.33 5.31h2.92V.23C23.75.15 22.01 0 19.99 0c-4.2 0-7.1 2.65-7.1 7.52V12H8.26v5.69h4.65V32h5.7V17.69h4.46l.7-5.69H18.6V8.08c0-1.64.45-2.77 2.74-2.77z"
                style="fill:var(--color3, #f4f4fd)" />
        </symbol>
        <symbol id="icon-linkedin" viewBox="0 0 32 32">
            <path fill="#f4f4fd"
                d="M32 32V20.26c0-5.74-1.24-10.16-7.95-10.16-3.23 0-5.39 1.77-6.27 3.45h-.1v-2.92h-6.36V32h6.63V21.42c0-2.79.52-5.48 3.97-5.48 3.4 0 3.45 3.18 3.45 5.66V32H32zM.53 10.64h6.63V32H.53V10.64zM3.84 0C1.72 0 0 1.72 0 3.84s1.72 3.88 3.84 3.88A3.88 3.88 0 0 0 7.7 3.84 3.85 3.85 0 0 0 3.84 0z"
                style="fill:var(--color3, #f4f4fd)" />
        </symbol>
        <symbol id="icon-first-company" viewBox="0 0 28 32">
            <path 
                d="m4.08 0 4.78 4.55H0v22.04h23.15v-8.43l4.77 4.54V0H4.07zm18.86 17.63L9.4 4.74h13.53v12.89zm-4.2 5.74H3.66V8.54h1.07v13.82h14v1zM6.67 30.68l-.56-1.16h-.47l.82 1.53v.9h.42v-.9l.81-1.52h-.46l-.56 1.15zm2.07-1.16h.1l.91 2.42h-.43l-.2-.56h-.94l-.2.57h-.43l.91-2.42h.28zm-.44 1.53H9l-.35-1.03-.35 1.03zm2.92-.4-.05-.07a1.27 1.27 0 0 1-.15-.24.65.65 0 0 1 .03-.57c.05-.09.13-.16.22-.2a.7.7 0 0 1 .33-.08c.13 0 .23.03.32.08.1.04.16.11.2.19a.5.5 0 0 1 .08.27c0 .07-.01.14-.04.2s-.07.13-.12.18l-.17.15-.16.12.47.56a.97.97 0 0 0 .11-.45h.35c0 .12-.02.23-.04.34a1.04 1.04 0 0 1-.18.4l.36.41h-.47l-.14-.16a.95.95 0 0 1-.24.13 1.1 1.1 0 0 1-.8-.02.67.67 0 0 1-.27-.24.67.67 0 0 1-.1-.36c0-.1.03-.18.07-.26a.8.8 0 0 1 .16-.2l.23-.18zm.2.24-.05.03-.13.14a.4.4 0 0 0-.02.41c.03.06.07.1.13.14.06.03.13.05.22.05a.62.62 0 0 0 .39-.14l-.54-.63zm.1-.44.14-.1c.07-.05.12-.1.15-.14a.3.3 0 0 0 .05-.17c0-.06-.02-.11-.07-.16s-.1-.07-.19-.07a.25.25 0 0 0-.23.14.34.34 0 0 0-.02.14c0 .05 0 .1.03.16a1 1 0 0 0 .14.2zm4.23.7h-.42c0 .11-.03.2-.07.28a.38.38 0 0 1-.17.16.63.63 0 0 1-.29.06c-.1 0-.18-.02-.25-.06s-.13-.1-.17-.17a.82.82 0 0 1-.1-.25c-.02-.1-.03-.21-.03-.33v-.2c0-.14 0-.25.03-.35.03-.1.06-.18.1-.25s.12-.12.19-.16a.56.56 0 0 1 .25-.05c.11 0 .2.02.28.06.07.04.13.1.16.17.04.07.06.16.08.27h.41c-.02-.17-.06-.3-.13-.43-.08-.13-.18-.23-.31-.3s-.3-.1-.5-.1c-.14 0-.28.02-.4.08a.86.86 0 0 0-.31.23c-.1.1-.16.22-.2.36-.05.14-.07.3-.07.47v.2c0 .18.02.33.06.47.05.14.12.26.2.36.09.1.19.18.3.23.13.06.26.08.41.08.2 0 .36-.03.5-.1s.24-.17.32-.3a.96.96 0 0 0 .13-.42zm2.3-.35v-.13c0-.19-.01-.35-.06-.5a1.08 1.08 0 0 0-.2-.36.87.87 0 0 0-.32-.24 1 1 0 0 0-.41-.08 1 1 0 0 0-.41.08.88.88 0 0 0-.32.24c-.09.1-.15.22-.2.37-.05.14-.08.3-.08.49v.13c0 .18.03.35.08.5.05.14.12.26.2.36s.2.18.32.24c.13.05.26.08.4.08.16 0 .3-.03.42-.08a.88.88 0 0 0 .31-.24c.1-.1.16-.22.2-.37s.08-.3.08-.49zm-.4-.14v.14c0 .14-.02.26-.05.36-.02.1-.06.2-.11.26a.5.5 0 0 1-.43.22.56.56 0 0 1-.25-.06.53.53 0 0 1-.18-.16c-.05-.07-.1-.16-.12-.26s-.04-.22-.04-.36v-.14c0-.13.01-.25.04-.35.03-.1.07-.2.12-.26a.5.5 0 0 1 .43-.22c.09 0 .17.02.24.06.08.03.14.09.19.16.05.07.09.15.11.26.03.1.04.22.04.35z"
            />
        </symbol>
        <symbol id="icon-second-company" viewBox="0 0 25 32"><path d="M10.53 1.8h-.75a14.18 14.18 0 0 0-.8.01 17.4 17.4 0 0 0-6.47 1.65l-.26.13v13.63l.62-.22a21.16 21.16 0 0 1 6.71-1.18v1.8c-.22 0-.44 0-.65.02h-.05A19.95 19.95 0 0 0 .48 20V2.54A18.3 18.3 0 0 1 5.27.58C6.74.2 8.26.01 9.78 0h.26a12.96 12.96 0 0 1 3.16.4v1.76c-.71-.16-1.44-.27-2.18-.33h-.04l-.45-.03zm3.1 1.8a19.35 19.35 0 0 0 5.95-.56c1.6-.4 3.13-1 4.57-1.78v17.16c-1.5.88-3.11 1.53-4.8 1.95-1.47.38-2.99.58-4.5.58-1.16.01-2.31-.12-3.43-.4V3.27a14.28 14.28 0 0 0 2.21.34zm8.74.14-.63.21c-.57.2-1.15.36-1.73.52a21.1 21.1 0 0 1-6.31.63l-.5-.04v14.02l.43.04a16.57 16.57 0 0 0 5.29-.48 17.1 17.1 0 0 0 3.18-1.14l.27-.13V3.74zM1.68 25.98A.91.91 0 0 0 1 25.7c-.14 0-.27.02-.4.07a.91.91 0 0 0-.51.52c-.05.12-.07.25-.07.39V29c0 .17.02.33.09.48a.81.81 0 0 0 .55.48c.12.03.23.05.35.05a.97.97 0 0 0 .9-.61.95.95 0 0 0 .07-.37v-.26h-.61v.2c0 .07-.01.15-.04.21a.36.36 0 0 1-.09.13.37.37 0 0 1-.12.07.42.42 0 0 1-.13.02.31.31 0 0 1-.29-.12.55.55 0 0 1-.08-.32V26.8c0-.12.02-.24.08-.35.03-.05.07-.1.12-.12s.12-.03.17-.02c.06 0 .11 0 .16.03s.09.06.12.1c.06.09.1.2.1.31v.2h.6v-.24a1.1 1.1 0 0 0-.28-.73zM5.31 25.95a1.05 1.05 0 0 0-1.38 0c-.1.1-.18.2-.24.33-.06.14-.09.3-.09.45v2.24c0 .16.03.31.1.46a.9.9 0 0 0 .23.31c.1.09.2.15.32.2a1.08 1.08 0 0 0 .73 0c.12-.05.23-.11.33-.2.1-.09.18-.2.23-.31.06-.15.1-.3.09-.46v-2.24a1.02 1.02 0 0 0-.32-.78zm-.28 3.02a.4.4 0 0 1-.13.32.45.45 0 0 1-.57 0 .4.4 0 0 1-.12-.32v-2.24a.4.4 0 0 1 .12-.32.45.45 0 0 1 .57 0 .4.4 0 0 1 .13.32v2.24zM10.07 29.97v-4.24h-.59l-.77 2.24-.78-2.24h-.59v4.24h.61v-2.58h.01l.6 1.82h.3l.6-1.82v2.58h.61zM13.51 26.03a.84.84 0 0 0-.34-.24 1.36 1.36 0 0 0-.44-.06h-.9v4.24h.6V28.3h.32c.18.01.37-.03.54-.11a.88.88 0 0 0 .33-.33c.07-.11.12-.24.14-.37a3 3 0 0 0-.02-1.08.9.9 0 0 0-.23-.4zm-.3 1.29c-.01.08-.03.15-.07.22a.35.35 0 0 1-.15.15.62.62 0 0 1-.29.05h-.27V26.3h.31c.1 0 .19.02.27.05.06.04.11.1.14.16.04.08.05.16.06.24V27.32zM16.37 25.73h-.5l-.92 4.24h.6l.18-.91h.82l.18.9h.6l-.96-4.23zm-.55 2.75.3-1.54.3 1.54h-.6zM20.28 28.28h-.01l-.92-2.55h-.58v4.24h.6v-2.55h.02l.92 2.55h.57v-4.24h-.6v2.55zM23.97 25.73l-.49 1.69h-.01l-.49-1.69h-.64l.83 2.45v1.79h.6v-1.8l.84-2.44h-.64zM0 31.17h.3v.81h.19v-.81h.29V31H0v.17zM2.45 31l-.38.98h.2l.09-.22h.39l.08.22h.22l-.4-.98h-.2zm-.03.6.13-.37.13.36h-.26zM4.87 31.62h.22v.13a.38.38 0 0 1-.23.08c-.04 0-.08 0-.12-.02l-.09-.07a.41.41 0 0 1-.07-.26c0-.22.1-.33.28-.33.05 0 .1 0 .14.04s.07.07.08.12l.2-.04c-.05-.2-.18-.29-.42-.29a.5.5 0 0 0-.34.13c-.05.05-.1.1-.12.17s-.03.14-.03.2c0 .14.04.27.13.38a.48.48 0 0 0 .38.14c.15 0 .3-.05.41-.16v-.39h-.42v.17zM7.34 31h-.2v.98h.69v-.17h-.5V31zM9.43 31h-.2v.98h.2V31zM11.47 31.66l-.4-.66h-.2v.98h.19v-.64l.4.64h.2V31h-.2v.66zM13.31 31.55h.5v-.17h-.5v-.21h.53V31h-.72v.98h.74v-.16h-.54v-.27zM17.8 31.39h-.4v-.4h-.2v1h.2v-.44h.4v.43h.19V31h-.2v.39zM19.65 31.55h.5v-.17h-.5v-.21h.53V31h-.73v.98h.75v-.16h-.55v-.27zM22.17 31.55c.17-.03.26-.12.26-.28a.24.24 0 0 0-.1-.21.55.55 0 0 0-.29-.06h-.42v.98h.2v-.41h.04c.04 0 .09 0 .12.02s.06.04.07.07l.22.32h.24l-.12-.2a.69.69 0 0 0-.22-.23zm-.2-.14h-.15v-.24h.16c.07 0 .13 0 .2.02l.03.04.01.06-.01.06a.11.11 0 0 1-.04.04.55.55 0 0 1-.2.02zM24.07 31.55h.49v-.17h-.5v-.21h.54V31h-.73v.98h.74v-.16h-.54v-.27z"/></symbol>
        <symbol id="icon-third-company" viewBox="0 0 34 32">
            <path 
                d="M5.32 31.4h.03l.03.02.17.16c-.13.13-.3.24-.48.3a1.9 1.9 0 0 1-.69.12c-.22 0-.44-.03-.65-.1a1.41 1.41 0 0 1-.48-.3 1.3 1.3 0 0 1-.32-.44A1.49 1.49 0 0 1 2.94 30c.08-.17.2-.32.34-.45.14-.12.32-.22.51-.29a2.07 2.07 0 0 1 1.29 0c.17.05.32.14.46.25l-.14.17a.12.12 0 0 1-.04.03.1.1 0 0 1-.06.02l-.06-.02-.08-.05-.1-.06a1.2 1.2 0 0 0-.35-.1 1.57 1.57 0 0 0-.73.06 1 1 0 0 0-.62.56c-.06.15-.09.3-.09.46 0 .16.03.32.1.46a1.02 1.02 0 0 0 .59.56c.14.05.29.08.44.08.09 0 .18 0 .26-.02a1.07 1.07 0 0 0 .57-.24.13.13 0 0 1 .09-.02zM10.3 30.58c0 .2-.05.39-.12.57-.07.17-.18.32-.33.45s-.32.22-.5.29c-.43.14-.9.14-1.32 0-.19-.07-.36-.17-.5-.3a1.3 1.3 0 0 1-.33-.44 1.47 1.47 0 0 1 0-1.15c.07-.17.18-.32.33-.45.14-.12.31-.22.5-.28a2.1 2.1 0 0 1 1.31 0c.2.06.37.16.51.3a1.32 1.32 0 0 1 .44 1.01zm-.46 0c0-.16-.02-.31-.08-.46a.94.94 0 0 0-.6-.56c-.3-.1-.64-.1-.95 0-.14.05-.26.12-.36.22-.1.1-.19.21-.24.34-.1.3-.1.62 0 .92a.94.94 0 0 0 .6.56c.3.1.64.1.95 0a.97.97 0 0 0 .6-.56c.05-.15.08-.3.08-.46zM13.69 31.06l.04.1.05-.1a.83.83 0 0 1 .06-.1l1.1-1.7c.02-.04.04-.06.06-.06l.1-.01h.32v2.78h-.39v-2.23l-1.1 1.74-.07.06a.16.16 0 0 1-.1.02h-.06c-.03 0-.06 0-.1-.02s-.04-.04-.06-.07l-1.14-1.74v2.23h-.37V29.2H12.45c.02.02.04.03.05.06l1.13 1.71.06.1zM17.83 30.92v1.05h-.43v-2.78h.96c.18 0 .36.02.54.06.13.03.26.1.37.17.1.08.17.17.22.27.05.12.08.24.07.36a.77.77 0 0 1-.31.63 1.1 1.1 0 0 1-.38.19c-.17.04-.34.06-.52.06h-.52zm0-.3h.52c.11 0 .23 0 .33-.04a.73.73 0 0 0 .25-.12.53.53 0 0 0 .2-.42c0-.07-.02-.15-.05-.22s-.08-.14-.15-.19a.94.94 0 0 0-.58-.15h-.52v1.15zM23.62 31.97h-.34c-.03 0-.07 0-.1-.03a.17.17 0 0 1-.05-.06l-.3-.67h-1.46l-.3.67a.16.16 0 0 1-.15.1h-.35l1.3-2.8h.44l1.31 2.8zm-2.13-1.03h1.21l-.51-1.14a1.78 1.78 0 0 1-.1-.26l-.05.15-.04.12-.51 1.13zM25.48 29.2l.07.05 1.88 2.1v-2.16h.39v2.78h-.22a.2.2 0 0 1-.08-.02.22.22 0 0 1-.07-.05l-1.89-2.1v2.17h-.38v-2.78h.23a.2.2 0 0 1 .07.01zM31 30.86v1.1h-.44v-1.1l-1.19-1.67h.39c.03 0 .06 0 .09.02l.06.06.74 1.09a1.78 1.78 0 0 1 .13.24l.06-.12a.95.95 0 0 1 .07-.12l.74-1.1a.26.26 0 0 1 .05-.05.15.15 0 0 1 .1-.03h.39l-1.2 1.68zM13.47 24.52l.57.05c2.91-1.1 5.37-2.93 7.07-5.22s2.58-4.98 2.51-7.7l-3.2-2.74c.65 2.9.35 5.9-.88 8.65s-3.33 5.17-6.07 6.96z"
                 />
            <path 
                d="M12.33 24.4h.09c2.92-1.78 5.15-4.28 6.4-7.16s1.46-6.02.6-9l-4.57-3.9c1.85 3.2 2.59 6.78 2.14 10.34s-2.06 6.92-4.66 9.71zM27.8 14.86a14.01 14.01 0 0 1-5.36 7.69c-.8.59-1.65 1.11-2.56 1.56 2.21-.55 4.24-1.53 5.93-2.86s3.01-2.98 3.84-4.8l-1.85-1.59z"
                 />
            <path 
                d="m27.08 14.42-2.64-2.25c-.05 2.57-.9 5.08-2.47 7.27s-3.8 3.98-6.45 5.18h.02c.59 0 1.18-.03 1.77-.09 2.47-.86 4.66-2.24 6.37-4s2.87-3.86 3.4-6.1zM12.71 2.69 9.57 0C6.76.93 4.34 2.56 2.63 4.68S.01 9.3 0 11.88c.01 2.85 1.13 5.6 3.18 7.85s4.93 3.83 8.16 4.52c2.88-3 4.57-6.71 4.81-10.59s-.95-7.72-3.44-10.97zM34.34 14c-.01-3.37-1.58-6.6-4.38-8.99S23.4 1.28 19.44 1.27c-1.83 0-3.64.29-5.34.85l19.25 16.45c.65-1.46 1-3 .99-4.56z"
                />
        </symbol>
        <symbol id="icon-forth-company" viewBox="0 0 66 32">
            <path 
                d="M10.2 9.77c-1.86 0-3.37 1.36-3.37 3.04s1.51 3.04 3.37 3.04c1.87 0 3.38-1.36 3.38-3.04s-1.51-3.04-3.37-3.04zM35.1 8.8c-.01-2.33-1.04-4.57-2.87-6.22S27.93.01 25.33 0c-2.58 0-5.06.93-6.89 2.58s-2.86 3.89-2.87 6.22v12.86S35.1 19.7 35.1 8.8zM0 25.88c0 1.62.72 3.17 2 4.32S4.98 32 6.78 32c1.8 0 3.52-.65 4.8-1.8s1.98-2.7 1.99-4.32v-8.95S0 18.3 0 25.88zm6.79 1.6c-.35 0-.7-.1-.99-.27s-.52-.43-.65-.72a1.48 1.48 0 0 1 .38-1.75 1.96 1.96 0 0 1 1.94-.35c.32.13.6.33.8.6A1.5 1.5 0 0 1 8.05 27c-.17.15-.36.27-.58.35s-.45.13-.68.13v-.01zM19.2 24.6v3.33h-.68V24.6h.69zm1.33 1.42v.53h-1.51v-.53h1.51zm.16-1.42v.53h-1.67v-.53h1.67zm3.14 1.58v.16c0 .26-.04.48-.1.68s-.17.38-.3.52c-.12.14-.27.25-.44.32-.18.08-.37.11-.58.11a1.29 1.29 0 0 1-1.02-.43 1.5 1.5 0 0 1-.3-.52 2.1 2.1 0 0 1-.1-.68v-.15c0-.26.03-.49.1-.69.07-.2.17-.37.3-.51.12-.14.27-.25.44-.32.18-.08.37-.12.58-.12.2 0 .4.04.57.12.17.07.32.18.45.32.12.14.22.31.3.51.06.2.1.43.1.69zm-.7.16v-.16c0-.18-.01-.33-.04-.47s-.08-.24-.15-.33-.14-.16-.23-.21c-.09-.05-.19-.07-.3-.07s-.22.02-.31.07a.61.61 0 0 0-.23.2c-.06.1-.1.21-.14.34s-.05.3-.05.47v.16c0 .18.02.33.05.47.03.13.08.25.14.34.07.09.14.16.23.2s.2.08.31.08c.12 0 .22-.03.31-.07s.17-.12.23-.21c.06-.1.1-.2.14-.34.03-.14.04-.3.04-.47zm2.92.71c0-.05 0-.1-.02-.16a.3.3 0 0 0-.1-.13c-.05-.04-.11-.08-.2-.12l-.33-.12c-.15-.05-.3-.1-.43-.17a1.77 1.77 0 0 1-.36-.21.95.95 0 0 1-.24-.29.79.79 0 0 1-.09-.37c0-.14.03-.27.1-.38a.87.87 0 0 1 .25-.3c.11-.07.24-.14.39-.18a1.77 1.77 0 0 1 1.14.06c.18.1.32.21.42.37.1.15.15.33.15.53h-.68c0-.1-.02-.19-.06-.26a.42.42 0 0 0-.18-.18.65.65 0 0 0-.3-.06.7.7 0 0 0-.3.06.4.4 0 0 0-.18.14.35.35 0 0 0-.06.2c0 .06.01.1.04.15.03.05.07.1.13.13l.2.11.3.1c.17.06.33.12.47.2.14.06.25.14.35.22s.16.18.2.3c.05.1.08.22.08.36 0 .14-.03.27-.09.39s-.13.21-.24.29c-.1.08-.24.14-.38.18a1.85 1.85 0 0 1-1.42-.2c-.13-.09-.24-.2-.31-.34s-.12-.3-.12-.49h.69c0 .1.01.2.04.27s.08.13.14.17c.06.04.13.08.21.1.08.02.17.03.27.03.12 0 .22-.02.3-.05a.36.36 0 0 0 .22-.34zm2.64-2.45v3.33h-.68V24.6h.68zm1.03 0v.53H27v-.53h2.72zm2.62 2.8v.53h-1.77v-.54h1.77zm-1.55-2.8v3.33h-.68V24.6h.69zm1.32 1.35v.52h-1.54v-.52h1.54zm.23-1.35v.53h-1.77v-.53h1.77zm.4 0H34c.25 0 .47.03.65.11.18.08.33.19.43.34s.14.33.14.55c0 .18-.03.33-.09.46a.85.85 0 0 1-.25.32c-.1.08-.23.15-.38.2l-.22.11H33.2v-.53h.8c.12 0 .22-.02.3-.07s.14-.1.18-.17a.55.55 0 0 0 .06-.27c0-.1-.02-.2-.06-.28s-.1-.13-.18-.17-.18-.07-.3-.07h-.56v2.8h-.69V24.6zm1.86 3.33-.75-1.49h.72l.77 1.45v.04h-.74zm3.6-1.19h-.84v-.54h.85c.13 0 .23-.02.32-.06.08-.04.14-.1.18-.18s.05-.17.05-.27-.01-.19-.05-.27-.1-.16-.18-.2-.2-.09-.32-.09h-.61v2.8h-.7V24.6h1.3c.27 0 .49.04.68.14a1.02 1.02 0 0 1 .58.95.95.95 0 0 1-.58.92c-.19.09-.41.13-.67.13zm3.96.65v.54H40.4v-.54h1.77zm-1.55-2.8v3.34h-.68V24.6h.68zm1.32 1.36v.52H40.4v-.52h1.54zm.23-1.35v.53h-1.77v-.53h1.77zm1.94 0v3.33h-.69V24.6h.69zm1.02 0v.53h-2.71v-.53h2.71zm2.63 2.8v.53h-1.78v-.54h1.78zm-1.55-2.8v3.33h-.69V24.6h.69zm1.31 1.35v.52h-1.54v-.52h1.55zm.23-1.35v.53h-1.77v-.53h1.77zm.4 0h1.25c.25 0 .47.03.65.11.19.08.33.19.43.34s.15.33.15.55c0 .18-.03.33-.1.46a.85.85 0 0 1-.25.32c-.1.08-.23.15-.38.2l-.22.11H48.6v-.53h.8c.12 0 .22-.02.3-.07s.14-.1.18-.17a.55.55 0 0 0 .06-.27c0-.1-.02-.2-.06-.28s-.1-.13-.18-.17a.67.67 0 0 0-.3-.07h-.56v2.8h-.68V24.6zm1.87 3.33-.76-1.49h.72l.77 1.45v.04h-.73zm2.87-.88-.03-.16a.3.3 0 0 0-.1-.13c-.04-.04-.1-.08-.2-.12l-.32-.12c-.16-.05-.3-.1-.43-.17a1.77 1.77 0 0 1-.36-.21.95.95 0 0 1-.24-.29.79.79 0 0 1-.1-.37.87.87 0 0 1 .35-.67c.12-.09.25-.15.4-.2a1.77 1.77 0 0 1 1.13.07c.19.1.33.21.43.37.1.15.15.33.15.53h-.68c0-.1-.02-.19-.06-.26a.42.42 0 0 0-.18-.18.65.65 0 0 0-.31-.06.7.7 0 0 0-.3.06.4.4 0 0 0-.18.14.35.35 0 0 0-.05.2c0 .06 0 .1.04.15.03.05.07.1.12.13l.21.11c.08.04.18.07.29.1.18.06.34.12.48.2.14.06.25.14.34.22a.84.84 0 0 1 .29.66c0 .14-.03.27-.09.39s-.14.21-.24.29c-.11.08-.24.14-.39.18a1.9 1.9 0 0 1-.98 0c-.16-.05-.3-.11-.44-.2-.13-.09-.23-.2-.3-.34s-.12-.3-.12-.49h.68c0 .1.02.2.05.27s.08.13.14.17c.06.04.13.08.2.1.09.02.18.03.28.03.12 0 .21-.02.29-.05a.36.36 0 0 0 .23-.34z"
                 />
        </symbol>
        <symbol id="icon-fifth-company" viewBox="0 0 44 32">
            <path 
                d="M3.33 26.7c.17.18.27.42.26.67 0 .16-.02.32-.1.46s-.17.28-.3.39c-.33.22-.74.33-1.15.3H0v-4.26h2c.39-.02.78.08 1.1.28.13.1.23.22.3.36s.1.3.08.44a.92.92 0 0 1-.23.65 1.1 1.1 0 0 1-.6.34c.27.04.5.17.68.36zm-2.38-.65h.85c.2.01.38-.04.54-.14.07-.05.12-.12.15-.2s.04-.14.03-.22c0-.08 0-.15-.03-.23s-.08-.13-.15-.19a.9.9 0 0 0-.55-.14H.95v1.12zm1.47 1.64c.07-.06.13-.12.16-.2s.05-.16.04-.24c.01-.08 0-.16-.04-.24s-.1-.14-.16-.2a.95.95 0 0 0-.58-.15h-.9v1.18h.91c.2 0 .4-.05.57-.15zM7.4 28.53l-1.1-1.67h-.42v1.67h-.95v-4.27h1.8c.46-.03.9.1 1.26.36.25.24.4.54.43.86s-.08.65-.3.91a1.5 1.5 0 0 1-.86.43l1.19 1.7H7.4zm-1.52-2.25h.78c.54 0 .81-.21.81-.65.01-.08 0-.17-.04-.25s-.09-.16-.15-.23a.91.91 0 0 0-.62-.17h-.79l.01 1.3zM12.62 27.67h-1.9l-.34.86h-1l1.75-4.22h1.08l1.74 4.22h-1l-.33-.86zm-.25-.65-.7-1.8-.7 1.8h1.4zM19.15 28.53h-.95l-2.12-2.9v2.9h-.95v-4.27h.95l2.12 2.92v-2.92h.95v4.27zM24.55 27.5c-.2.33-.5.6-.86.76-.4.19-.87.28-1.33.27h-1.68v-4.27h1.68c.46 0 .92.08 1.33.26.37.17.66.43.86.75a2.28 2.28 0 0 1 0 2.24zm-1.08-.1c.27-.28.42-.64.42-1.01s-.15-.74-.42-1.02a1.77 1.77 0 0 0-1.19-.36h-.66v2.76h.66c.43.02.86-.1 1.19-.37zM13.21.53S25.43 4.7 25.17 10.7v10.16s-12.2-4.15-11.95-10.16V.53zM36.06 18.48a17.92 17.92 0 0 1 7.77-2.57v-3.19a15.67 15.67 0 0 0-7.77 5.76z"
                 />
            <path 
                d="M34.67 19.44a16.13 16.13 0 0 1 9.16-7.38V2.89S26.43 8.8 26.79 17.36v14.48s.78-.27 2-.76c0-.47 0-.93.05-1.4a14.6 14.6 0 0 1 5.83-10.24z"
                 />
            <path
                d="M33.02 24.82c.1-1 .3-2 .6-2.96a13.29 13.29 0 0 0-3.68 8.74c1-.43 2.14-.96 3.35-1.59-.3-1.38-.4-2.79-.27-4.19zM33.71 24.87c-.11 1.27-.04 2.54.22 3.8 4.75-2.57 10.1-6.52 9.89-11.3v-.42a16.4 16.4 0 0 0-9.05 3.8c-.58 1.32-.93 2.7-1.06 4.12z"
                />
        </symbol>
        <symbol id="icon-sixth-company" viewBox="0 0 67 32">
            <path 
                d="M33.8 15.25a2.1 2.1 0 0 1-.43-1.42v-2.05c0-.63.14-1.11.43-1.44s.77-.49 1.47-.49c.65 0 1.12.14 1.39.42.3.36.45.8.41 1.23v.48H35.9v-.49c0-.16 0-.32-.03-.47a.46.46 0 0 0-.17-.29.68.68 0 0 0-.42-.1.71.71 0 0 0-.45.1c-.1.1-.17.2-.2.32-.02.17-.04.34-.04.51v2.5c-.01.23.04.47.15.7.06.07.14.12.24.16s.2.05.3.04c.15.01.3-.03.41-.11a.5.5 0 0 0 .18-.3c.02-.17.04-.34.03-.5v-.51h1.17V14c.03.46-.1.91-.4 1.3-.27.3-.73.45-1.4.45s-1.18-.16-1.47-.5zM38.67 15.27c-.3-.32-.45-.79-.45-1.4V11.7c0-.61.15-1.08.45-1.39s.79-.47 1.48-.47 1.18.16 1.47.47c.3.32.45.78.45 1.39v2.16c0 .6-.15 1.08-.45 1.4s-.79.48-1.47.48-1.18-.16-1.48-.48zm2.02-.52c.11-.2.16-.42.14-.64v-2.64c.02-.22-.03-.43-.13-.63-.06-.08-.15-.14-.24-.17s-.2-.05-.31-.04c-.1-.01-.21 0-.31.04s-.18.1-.24.17c-.1.2-.15.41-.14.63v2.65c-.01.23.03.44.14.64a.79.79 0 0 0 .55.21.75.75 0 0 0 .55-.21zM43.48 9.92h1.26l.94 3.98.97-3.98h1.23l.12 5.75h-.9l-.1-4-.94 4h-.73l-.96-4.01-.1 4.01h-.9l.1-5.75zM49.41 9.92h1.96c1.13 0 1.7.54 1.7 1.63 0 1.04-.6 1.56-1.79 1.56h-.67v2.56h-1.2V9.92zm1.68 2.46a.95.95 0 0 0 .66-.19c.14-.19.2-.42.18-.65 0-.17-.02-.35-.06-.52-.02-.06-.05-.1-.1-.16s-.09-.08-.14-.11c-.17-.07-.36-.1-.54-.1h-.47v1.72h.47zM54.81 9.92h1.3l1.34 5.75h-1.13l-.27-1.33H54.9l-.27 1.33h-1.14l1.33-5.75zm1.11 3.76-.45-2.42-.45 2.42h.9zM58.52 9.92h.85l1.62 3.28V9.92h1v5.75h-.8l-1.63-3.43v3.43h-1.04V9.92zM64.35 13.48 63 9.92h1.14l.82 2.29.77-2.28h1.11l-1.33 3.55v2.2h-1.16v-2.2zM35.67 18.19v.3h-.99v2.33h-.41V18.5h-1v-.3h2.4zM38.76 20.82h-.32c-.03 0-.06 0-.09-.02a.13.13 0 0 1-.05-.06l-.28-.63h-1.38l-.28.63-.04.07a.15.15 0 0 1-.1.02h-.31l1.2-2.63h.43l1.22 2.62zm-2-.98h1.14l-.48-1.07a1.85 1.85 0 0 1-.1-.25c0 .05-.02.1-.04.14l-.04.11-.48 1.08zM40.85 20.57h.23a1.4 1.4 0 0 0 .37-.08l.16-.07v-.6h-.52l-.03-.01-.02-.02v-.23h.94v1a1.9 1.9 0 0 1-.82.28l-.35.01c-.21 0-.42-.03-.61-.1a1.5 1.5 0 0 1-.49-.27 1.26 1.26 0 0 1-.42-.97 1.22 1.22 0 0 1 .42-.97c.14-.11.3-.2.49-.27a2.02 2.02 0 0 1 .98-.07 1.65 1.65 0 0 1 .74.3l-.11.17-.04.03-.06.02-.07-.02a1.81 1.81 0 0 1-.12-.07l-.16-.07a1.52 1.52 0 0 0-1 0c-.13.04-.26.11-.36.2-.1.1-.17.2-.22.33-.1.29-.1.6 0 .88a1.03 1.03 0 0 0 .6.54c.15.05.31.06.47.05zM44.71 20.52h1.32v.3h-1.72v-2.64h.41v2.34zM47.4 20.82H47V18.2h.4v2.63zM48.95 18.2l.06.05 1.77 1.98v-2.06h.36v2.65h-.2a.2.2 0 0 1-.1-.01.23.23 0 0 1-.06-.05L49 18.77v2.05h-.34v-2.64h.21a.2.2 0 0 1 .07.02zM54.19 18.19v.29h-1.47v.87h1.2v.28h-1.2v.9h1.47v.29h-1.9v-2.64h1.9zM10.8 1.9 29.2 6.4v15.78l-18.39-4.5V1.89zM9.63.54v17.9l20.73 5.08V5.63L9.64.54z"
                 />
            <path  d="M20.74 31.83 0 26.75V8.85l20.74 5.09v17.9z"
                 />
            <path 
                d="m9.97 1.69 18.14 4.45-7.71 6.66L2.25 8.35l7.72-6.66zM9.63.55 0 8.85l20.74 5.09 9.63-8.31L9.63.55zM21.9 30.83l8.47-7.3-8.46-2.08v9.38z"
                />
        </symbol>
        <symbol id="icon-close" viewBox="0 0 32 32">
            <path d="M32 3.22 28.78 0 16 12.78 3.22 0 0 3.22 12.78 16 0 28.78 3.22 32 16 19.22 28.78 32 32 28.78 19.22 16 32 3.22z"/>
        </symbol>
        <symbol id="icon-email-input" viewBox="0 0 24 32">
            <path d="M20 8H4a2 2 0 0 0-1.99 2L2 22c0 1.1.9 2 2 2h16a2 2 0 0 0 2-2V10a2 2 0 0 0-2-2zm-.4 4.25-7.07 4.42c-.32.2-.74.2-1.06 0L4.4 12.25a.85.85 0 1 1 .9-1.44L12 15l6.7-4.19a.85.85 0 1 1 .9 1.44z"/>
        </symbol>
        <symbol id="icon-icon-send" viewBox="0 0 32 32">
            <path d="m32 2.67-32 15 10.23 3.15L26 8.5 14 21.99h.01H14v7.34l5.74-5.57L27 26l5-23.33z"/>
        </symbol>
        <symbol id="icon-person" viewBox="0 0 32 32">
            <path d="M16 16a5.33 5.33 0 1 0 0-10.66A5.33 5.33 0 0 0 16 16zm0 2.67c-3.56 0-10.67 1.78-10.67 5.33v1.33c0 .74.6 1.34 1.34 1.34h18.66c.74 0 1.34-.6 1.34-1.34V24c0-3.55-7.11-5.33-10.67-5.33z"/>
        </symbol>
        <symbol id="icon-phone-input" viewBox="0 0 24 32">
            <path d="m19.64 18.49-2.46-.28a1.92 1.92 0 0 0-1.58.55l-1.77 1.77a14.51 14.51 0 0 1-6.36-6.36l1.78-1.78c.42-.42.62-1 .55-1.58l-.28-2.44a1.93 1.93 0 0 0-1.92-1.7H5.93c-1.09 0-2 .9-1.93 2a16.4 16.4 0 0 0 15.34 15.32c1.09.07 2-.83 2-1.93V20.4c0-.98-.73-1.8-1.7-1.92z"/>
        </symbol>
        <symbol id="icon-agree" viewBox="0 0 40 32">
            <path d="M33.782 1.02a3.668 3.668 0 0 1 5.115.039 3.712 3.712 0 0 1 .135 5.141L19.454 30.817a3.674 3.674 0 0 1-4.074.914 3.675 3.675 0 0 1-1.226-.815L1.17 17.862A3.693 3.693 0 0 1-.001 15.22a3.714 3.714 0 0 1 1.077-2.682 3.664 3.664 0 0 1 4.1-.763 3.68 3.68 0 0 1 1.195.857l10.275 10.325 17.042-21.83c.031-.038.063-.074.098-.109h-.005z"/>
        </symbol>
    </defs>
</svg>